<mxfile host="65bd71144e">
    <diagram id="JBA1GqpKUFHyZurQm86B" name="ページ1">
        <mxGraphModel dx="1507" dy="582" grid="1" gridSize="10" guides="1" tooltips="1" connect="1" arrows="1" fold="1" page="1" pageScale="1" pageWidth="827" pageHeight="1169" math="0" shadow="0">
            <root>
                <mxCell id="0"/>
                <mxCell id="1" parent="0"/>
                <mxCell id="2" value="名前" style="rounded=0;whiteSpace=wrap;html=1;" vertex="1" parent="1">
                    <mxGeometry x="230" y="210" width="80" height="60" as="geometry"/>
                </mxCell>
                <mxCell id="3" value="" style="endArrow=diamondThin;endFill=0;endSize=24;html=1;entryX=0;entryY=1;entryDx=0;entryDy=0;exitX=0.5;exitY=0;exitDx=0;exitDy=0;" edge="1" parent="1" source="2" target="4">
                    <mxGeometry width="160" relative="1" as="geometry">
                        <mxPoint x="310" y="210" as="sourcePoint"/>
                        <mxPoint x="490" y="290" as="targetPoint"/>
                    </mxGeometry>
                </mxCell>
                <mxCell id="4" value="robodog" style="html=1;whiteSpace=wrap;" vertex="1" parent="1">
                    <mxGeometry x="310" y="60" width="110" height="50" as="geometry"/>
                </mxCell>
                <mxCell id="6" value="時刻" style="rounded=0;whiteSpace=wrap;html=1;" vertex="1" parent="1">
                    <mxGeometry x="310" y="210" width="76" height="60" as="geometry"/>
                </mxCell>
                <mxCell id="7" value="" style="endArrow=diamondThin;endFill=0;endSize=24;html=1;entryX=0.25;entryY=1;entryDx=0;entryDy=0;exitX=0.41;exitY=0.025;exitDx=0;exitDy=0;exitPerimeter=0;" edge="1" parent="1" source="6" target="4">
                    <mxGeometry width="160" relative="1" as="geometry">
                        <mxPoint x="300" y="220" as="sourcePoint"/>
                        <mxPoint x="348" y="120" as="targetPoint"/>
                    </mxGeometry>
                </mxCell>
                <mxCell id="8" value="挨拶" style="rounded=0;whiteSpace=wrap;html=1;" vertex="1" parent="1">
                    <mxGeometry x="386" y="210" width="60" height="60" as="geometry"/>
                </mxCell>
                <mxCell id="9" value="" style="endArrow=diamondThin;endFill=0;endSize=24;html=1;entryX=0.5;entryY=1;entryDx=0;entryDy=0;exitX=0.25;exitY=0;exitDx=0;exitDy=0;" edge="1" parent="1" source="8" target="4">
                    <mxGeometry width="160" relative="1" as="geometry">
                        <mxPoint x="351" y="222" as="sourcePoint"/>
                        <mxPoint x="348" y="120" as="targetPoint"/>
                    </mxGeometry>
                </mxCell>
                <mxCell id="10" value="" style="endArrow=diamondThin;endFill=0;endSize=24;html=1;entryX=0.75;entryY=1;entryDx=0;entryDy=0;exitX=0.5;exitY=0;exitDx=0;exitDy=0;" edge="1" parent="1" source="13" target="4">
                    <mxGeometry width="160" relative="1" as="geometry">
                        <mxPoint x="463" y="212" as="sourcePoint"/>
                        <mxPoint x="460" y="110" as="targetPoint"/>
                    </mxGeometry>
                </mxCell>
                <mxCell id="11" value="" style="endArrow=diamondThin;endFill=0;endSize=24;html=1;entryX=1;entryY=1;entryDx=0;entryDy=0;exitX=0.5;exitY=0;exitDx=0;exitDy=0;" edge="1" parent="1" source="12" target="4">
                    <mxGeometry width="160" relative="1" as="geometry">
                        <mxPoint x="513" y="222" as="sourcePoint"/>
                        <mxPoint x="510" y="120" as="targetPoint"/>
                    </mxGeometry>
                </mxCell>
                <mxCell id="12" value="足し算結果" style="rounded=0;whiteSpace=wrap;html=1;" vertex="1" parent="1">
                    <mxGeometry x="522" y="210" width="76" height="60" as="geometry"/>
                </mxCell>
                <mxCell id="13" value="2つの足し算" style="rounded=0;whiteSpace=wrap;html=1;" vertex="1" parent="1">
                    <mxGeometry x="446" y="210" width="76" height="60" as="geometry"/>
                </mxCell>
                <mxCell id="15" value="ドメイン＝名詞を線で結んだもの" style="text;html=1;align=center;verticalAlign=middle;whiteSpace=wrap;rounded=0;" vertex="1" parent="1">
                    <mxGeometry x="110" y="20" width="200" height="30" as="geometry"/>
                </mxCell>
            </root>
        </mxGraphModel>
    </diagram>
</mxfile>